/vscmnt/brussel_pixiu_data/_data_brussel/112/vsc11236/PredSimResults/SUBJ07mtu3D/weighted-expIG/worker_04.mot
version=1
nRows=9
nColumns=50
inDegrees=yes
endheader
                time	         pelvis_tilt	         pelvis_list	     pelvis_rotation	           pelvis_tx	           pelvis_ty	           pelvis_tz	       hip_flexion_r	     hip_adduction_r	      hip_rotation_r	        knee_angle_r	       ankle_angle_r	         mtp_angle_r	       hip_flexion_l	     hip_adduction_l	      hip_rotation_l	        knee_angle_l	       ankle_angle_l	         mtp_angle_l	    lumbar_extension	      lumbar_bending	     lumbar_rotation	 ercspn_r/activation	 intobl_r/activation	 extobl_r/activation	    abd_r/activation	    add_r/activation	hamstrings_r/activation	bifemsh_r/activation	glut_max_r/activation	iliopsoas_r/activation	rect_fem_r/activation	  vasti_r/activation	gastroc_r/activation	 soleus_r/activation	tib_ant_r/activation	 ercspn_l/activation	 intobl_l/activation	 extobl_l/activation	    abd_l/activation	    add_l/activation	hamstrings_l/activation	bifemsh_l/activation	glut_max_l/activation	iliopsoas_l/activation	rect_fem_l/activation	  vasti_l/activation	gastroc_l/activation	 soleus_l/activation	tib_ant_l/activation	
          0.56810298	         -6.83689422	          3.63492073	        -10.00129802	          0.69308564	          0.84278348	          0.01475412	        -12.78297348	         -4.23049596	          5.43447431	         -7.47115299	          7.87747078	         29.47010232	         32.03527269	         -0.79443550	         -8.08906285	         -5.22523506	          7.20239945	          0.25157460	         -6.25090340	         -2.07794610	          3.58372582	          0.08290836	          0.01000031	          0.01000106	          0.03366759	          0.09097070	          0.02844026	          0.13857921	          0.02916094	          0.45216607	          0.01000207	          0.01000119	          0.27989662	          0.26552578	          0.01886281	          0.08682014	          0.15051868	          0.02632462	          0.01000026	          0.21817495	          0.06444435	          0.19071910	          0.07014594	          0.09071146	          0.01000329	          0.01000049	          0.02830725	          0.01016028	          0.26991064	
          0.57946504	         -6.90141638	          3.49696605	         -9.89190323	          0.70969260	          0.84095719	          0.01441998	        -12.75423428	         -4.09694998	          4.90096289	         -9.55644683	          7.13351986	         31.23544345	         32.12187249	         -0.63347024	         -7.32070533	         -7.22966242	          6.90990662	          0.23221055	         -6.04652182	         -2.55815371	          3.63408634	          0.11119382	          0.01000025	          0.01189088	          0.02830714	          0.12290247	          0.02914121	          0.11651531	          0.02451804	          0.43807780	          0.01000085	          0.01000062	          0.23533235	          0.24707041	          0.01585954	          0.07299703	          0.14687311	          0.02213333	          0.01565640	          0.20083919	          0.06682674	          0.16035411	          0.12908859	          0.07626868	          0.01000079	          0.01000027	          0.02380049	          0.01191795	          0.30420521	
          0.59082710	         -6.94991350	          3.36107151	         -9.71780408	          0.72651178	          0.83940500	          0.01402493	        -12.49632728	         -3.94491493	          4.30582936	        -12.10868854	          6.24061353	         32.91314129	         31.98294511	         -0.47842423	         -6.60233481	         -8.88416401	          6.52327687	          0.22573529	         -5.83375844	         -3.05314830	          3.65412288	          0.13967777	          0.01000020	          0.01000044	          0.02380017	          0.11193115	          0.02450276	          0.09796439	          0.02061436	          0.41946526	          0.01000121	          0.01000060	          0.19786344	          0.21110371	          0.01333444	          0.08594083	          0.12348863	          0.01860937	          0.09996693	          0.21156012	          0.06428938	          0.13482373	          0.13568300	          0.06412544	          0.01000055	          0.01000011	          0.02001114	          0.01002048	          0.33679620	
          0.60218916	         -6.98347906	          3.22106201	         -9.48562611	          0.74329851	          0.83827606	          0.01353352	        -11.95385941	         -3.77720395	          3.66214805	        -15.17595545	          5.17042101	         34.33189259	         31.71266328	         -0.30364533	         -5.97740468	        -10.31510217	          6.10594080	          0.20906156	         -5.63795914	         -3.55011408	          3.64763294	          0.17095709	          0.01000018	          0.01000065	          0.02001079	          0.11757279	          0.02060277	          0.08236725	          0.01733221	          0.38217732	          0.01000058	          0.01000018	          0.16636021	          0.17749247	          0.01121141	          0.08787126	          0.10382722	          0.01564650	          0.13686503	          0.21507493	          0.05405517	          0.11335785	          0.16668713	          0.05391560	          0.01000088	          0.01000204	          0.01682520	          0.01000628	          0.35775040	
          0.61355122	         -7.00175268	          3.08586174	         -9.19993049	          0.75986913	          0.83767262	          0.01295128	        -11.10285165	         -3.61275701	          2.96809436	        -18.75890702	          3.95125777	         35.18803575	         31.39335070	         -0.10775836	         -5.43147725	        -11.67999636	          5.82304442	          0.19686832	         -5.47320844	         -4.05641684	          3.61319737	          0.19996165	          0.01000023	          0.01000054	          0.01682474	          0.12945327	          0.01732353	          0.06925380	          0.01457264	          0.32132893	          0.01000043	          0.01000012	          0.13987283	          0.14923266	          0.01000009	          0.08179326	          0.08729623	          0.01315538	          0.15803232	          0.19780316	          0.04937227	          0.09530971	          0.17298467	          0.04533135	          0.01000069	          0.06605460	          0.01414654	          0.01000118	          0.36922840	
          0.62491328	         -7.00659713	          2.95189241	         -8.86227304	          0.77611524	          0.83770872	          0.01230294	         -9.95018822	         -3.45961818	          2.21988595	        -22.79670324	          2.54881255	         35.24168049	         31.01866580	          0.09865147	         -4.95983791	        -12.93876230	          5.65098588	          0.18205940	         -5.34610533	         -4.56563508	          3.55048624	          0.21288404	          0.01000030	          0.01000072	          0.01414596	          0.14616152	          0.01456626	          0.05823022	          0.01225244	          0.27016794	          0.01000053	          0.01000011	          0.11760269	          0.12547229	          0.01000015	          0.06877110	          0.07339724	          0.01106096	          0.16137261	          0.16631042	          0.05025701	          0.08013516	          0.15856928	          0.03811385	          0.01000096	          0.15195209	          0.01189448	          0.01000262	          0.37473302	
          0.63627534	         -7.00136879	          2.80517005	         -8.47085735	          0.79199131	          0.83846242	          0.01161788	         -8.53417842	         -3.31333866	          1.43461760	        -27.13561053	          0.77088956	         34.54098634	         30.53670932	          0.30345480	         -4.53745899	        -13.99478398	          5.63390378	          0.16944209	         -5.25951429	         -5.06105343	          3.45766870	          0.21078531	          0.01000014	          0.01000068	          0.01189369	          0.15678221	          0.01224794	          0.05610862	          0.01030166	          0.22715263	          0.01000035	          0.01000005	          0.09887834	          0.10549497	          0.01000012	          0.05782173	          0.06171119	          0.01000039	          0.16433968	          0.13983109	          0.05022022	          0.06737668	          0.13333713	          0.03204550	          0.01000068	          0.20573221	          0.01000164	          0.01000114	          0.36519052	
          0.64763740	         -6.98854053	          2.63265435	         -8.02637161	          0.80748762	          0.83990855	          0.01092400	         -6.90838103	         -3.16712921	          0.64191796	        -31.60945407	         -1.41464915	         33.00596453	         29.91337795	          0.49597634	         -4.11631971	        -14.78893599	          5.78380208	          0.16066524	         -5.21422025	         -5.52802692	          3.33373937	          0.21380538	          0.01918595	          0.01000081	          0.01000007	          0.14230029	          0.01189720	          0.04717715	          0.01000008	          0.19098609	          0.01000038	          0.01000008	          0.08313523	          0.08869837	          0.03663413	          0.04861560	          0.05188575	          0.01000091	          0.17039266	          0.11756766	          0.04921355	          0.05664958	          0.11210788	          0.02694334	          0.01000058	          0.21597766	          0.01001012	          0.01000552	          0.34478158	
          0.65899946	         -6.96879474	          2.43531181	         -7.53944948	          0.82259218	          0.84190976	          0.01024071	         -5.13087419	         -3.02157218	         -0.12648042	        -36.11692096	         -3.59922631	         30.20185809	         29.16180516	          0.67214894	         -3.66244010	        -15.34083275	          6.07729546	          0.15937672	         -5.20937808	         -5.96188306	          3.18317056	          0.23681941	          0.05908067	          0.03005628	          0.01000010	          0.11964374	          0.01000335	          0.03966805	          0.01000012	          0.16057789	          0.01000110	          0.01000010	          0.06989871	          0.07457609	          0.15956605	          0.04087523	          0.04362469	          0.01000060	          0.17311990	          0.09884892	          0.04698274	          0.04763035	          0.09566477	          0.02265353	          0.01000054	          0.22831914	          0.01000090	          0.01000093	          0.31997317	
